#!OML:ASF H:\Dans Jumps\Project 1\Capture day 1\Session 1\subject.ASF
:FULLY-SPECIFIED
:DEGREES
166
root 0.280441 19.2372 -10.9487 12.0681 2.67421 -0.856119
lowerback 9.5018 -0.284952 -2.05821
upperback 5.6087 -0.514346 2.84062
thorax 0.547903 -0.347999 4.15027
lowerneck -7.33618 0.00543399 -1.75039
upperneck 22.5414 0.617222 -1.47795
head 8.18013 0.010271 -0.138446
rclavicle 5.36719e-015 -1.82882e-014
rhumerus -4.16162 -0.440365 -84.6877
rradius 33.0522
rwrist 24.6147
rhand -23.0158 -25.0566
rfingers 7.12502
rthumb 3.42781 -55.0088
lclavicle 5.36719e-015 -1.82882e-014
lhumerus -0.840511 -16.812 85.9088
lradius 34.8752
lwrist 24.7247
lhand -30.4439 -11.445
lfingers 7.12502
lthumb -3.74614 18.5018
rfemur -25.4663 -5.17314 19.3759
rtibia 42.7386
rfoot 16.2094 -10.2915
rtoes 16.7105
lfemur -24.3762 3.5856 -16.6299
ltibia 39.6735
lfoot 23.6439 2.44797
ltoes -4.20901
167
root 0.285691 19.4701 -10.8085 11.8067 2.65919 -0.887766
lowerback 9.12285 -0.337599 -1.98429
upperback 5.59748 -0.576208 2.81275
thorax 0.74738 -0.379948 4.07956
lowerneck -7.08684 0.00917154 -1.80742
upperneck 22.9616 0.644917 -1.53104
head 8.27654 0.00981297 -0.144801
rclavicle -2.98177e-015 -1.78906e-014
rhumerus -4.21409 -0.434646 -85.0197
rradius 32.6813
rwrist 24.5984
rhand -23.1525 -24.9929
rfingers 7.12502
rthumb 3.29587 -54.9471
lclavicle -2.98177e-015 -1.78906e-014
lhumerus -0.749049 -16.694 86.3388
lradius 34.8389
lwrist 24.5341
lhand -30.4407 -11.5399
lfingers 7.12502
lthumb -3.74306 18.407
rfemur -25.2954 -4.85041 19.3068
rtibia 42.6105
rfoot 17.6386 -11.6537
rtoes 21.369
lfemur -24.1753 3.22099 -16.585
ltibia 39.4054
lfoot 26.3309 3.37496
ltoes -0.850101
168
root 0.290382 19.692 -10.6758 11.6073 2.65299 -0.951771
lowerback 8.80721 -0.383066 -1.86581
upperback 5.56277 -0.62606 2.78054
thorax 0.885975 -0.403202 3.97862
lowerneck -6.94881 0.010226 -1.83322
upperneck 23.3814 0.66009 -1.55253
head 8.39367 0.00830186 -0.147092
rclavicle -2.78299e-015 2.82274e-014
rhumerus -4.28834 -0.428513 -85.3397
rradius 32.2685
rwrist 24.6848
rhand -23.1867 -24.9508
rfingers 7.12502
rthumb 3.26277 -54.9056
lclavicle -2.78299e-015 2.82274e-014
lhumerus -0.674596 -16.5282 86.7719
lradius 34.7575
lwrist 24.3148
lhand -30.4165 -11.5837
lfingers 7.12502
lthumb -3.71971 18.3636
rfemur -25.3917 -4.53546 19.2999
rtibia 42.821
rfoot 18.4182 -12.4692
rtoes 24.3972
lfemur -24.2485 2.9868 -16.546
ltibia 39.5047
lfoot 27.8323 3.98384
ltoes 1.81927
169
root 0.294275 19.9026 -10.5503 11.4579 2.65589 -1.04161
lowerback 8.55284 -0.423803 -1.7231
upperback 5.51774 -0.668822 2.74926
thorax 0.97924 -0.421318 3.86503
lowerneck -6.89947 0.0119854 -1.82783
upperneck 23.7624 0.668154 -1.55274
head 8.51445 0.00805134 -0.148144
rclavicle 7.15625e-015 -2.5842e-014
rhumerus -4.36199 -0.411222 -85.6458
rradius 31.824
rwrist 24.8749
rhand -23.0866 -24.9339
rfingers 7.12502
rthumb 3.35946 -54.8871
lclavicle 7.15625e-015 -2.5842e-014
lhumerus -0.60526 -16.2914 87.2106
lradius 34.6344
lwrist 24.0606
lhand -30.3679 -11.6051
lfingers 7.12502
lthumb -3.67274 18.343
rfemur -25.7278 -4.23209 19.341
rtibia 43.314
rfoot 18.8458 -12.6532
rtoes 25.9156
lfemur -24.5587 2.86061 -16.5081
ltibia 39.9054
lfoot 28.3407 4.11181
ltoes 3.6178
170
root 0.297456 20.1015 -10.431 11.3239 2.66039 -1.15442
lowerback 8.37839 -0.455834 -1.5646
upperback 5.47625 -0.699898 2.72044
thorax 1.03111 -0.432581 3.74519
lowerneck -6.92604 0.0146434 -1.7816
upperneck 24.0957 0.671417 -1.55044
head 8.6335 0.00954524 -0.155655
rclavicle 1.15295e-014 -5.1684e-015
rhumerus -4.4208 -0.391486 -85.9396
rradius 31.3464
rwrist 25.1299
rhand -22.8793 -24.9275
rfingers 7.12502
rthumb 3.55969 -54.8775
lclavicle 1.15295e-014 -5.1684e-015
lhumerus -0.531906 -16.0167 87.6493
lradius 34.4751
lwrist 23.8082
lhand -30.3035 -11.5876
lfingers 7.12502
lthumb -3.61051 18.3615
rfemur -26.2404 -3.93873 19.4225
rtibia 44.0116
rfoot 19.131 -12.2756
rtoes 26.3919
lfemur -25.0361 2.80261 -16.4619
ltibia 40.5183
lfoot 28.1871 3.79708
ltoes 4.61778
171
root 0.299899 20.2883 -10.318 11.1912 2.67006 -1.26919
lowerback 8.29148 -0.484594 -1.41976
upperback 5.44245 -0.728123 2.69875
thorax 1.04297 -0.442404 3.6415
lowerneck -6.99232 0.0214739 -1.7187
upperneck 24.3572 0.676604 -1.54593
head 8.73572 0.014349 -0.164944
rclavicle -2.5842e-015 -5.1684e-015
rhumerus -4.46892 -0.360927 -86.2177
rradius 30.8646
rwrist 25.3942
rhand -22.6421 -24.8939
rfingers 7.12502
rthumb 3.78869 -54.84
lclavicle -2.5842e-015 -5.1684e-015
lhumerus -0.460367 -15.6886 88.0994
lradius 34.2862
lwrist 23.557
lhand -30.2226 -11.5372
lfingers 7.12502
lthumb -3.53244 18.4133
rfemur -26.8826 -3.67274 19.524
rtibia 44.8271
rfoot 19.4071 -11.5156
rtoes 26.4686
lfemur -25.6321 2.76874 -16.4232
ltibia 41.2491
lfoot 27.7416 3.1752
ltoes 5.11111
172
root 0.301737 20.4625 -10.2103 11.0262 2.67756 -1.37359
lowerback 8.31142 -0.508269 -1.30296
upperback 5.43012 -0.751785 2.68328
thorax 1.01862 -0.450567 3.56128
lowerneck -7.10147 0.0335715 -1.64547
upperneck 24.5627 0.688056 -1.54544
head 8.82704 0.0231234 -0.176642
rclavicle -1.41137e-014 -2.38542e-015
rhumerus -4.51067 -0.325853 -86.4793
rradius 30.4054
rwrist 25.6148
rhand -22.4099 -24.8537
rfingers 7.12502
rthumb 4.01298 -54.7956
lclavicle -1.41137e-014 -2.38542e-015
lhumerus -0.376503 -15.3311 88.5537
lradius 34.0716
lwrist 23.3244
lhand -30.1309 -11.4415
lfingers 7.12502
lthumb -3.4439 18.5104
rfemur -27.5777 -3.44154 19.6348
rtibia 45.6734
rfoot 19.6419 -10.598
rtoes 26.3592
lfemur -26.2719 2.73787 -16.4044
ltibia 42.0126
lfoot 27.2837 2.44557
ltoes 5.40932
173
root 0.303133 20.6238 -10.1071 10.8046 2.68018 -1.46432
lowerback 8.44868 -0.529827 -1.22004
upperback 5.44501 -0.77492 2.6758
thorax 0.958782 -0.459362 3.51015
lowerneck -7.2193 0.0525034 -1.57543
upperneck 24.697 0.709242 -1.55038
head 8.8956 0.0364265 -0.188545
rclavicle -1.98785e-016 -2.38542e-015
rhumerus -4.55047 -0.292658 -86.7263
rradius 29.9781
rwrist 25.776
rhand -22.2021 -24.8284
rfingers 7.12502
rthumb 4.21358 -54.7665
lclavicle -1.98785e-016 -2.38542e-015
lhumerus -0.289338 -14.9471 89.0112
lradius 33.8338
lwrist 23.1016
lhand -30.0211 -11.323
lfingers 7.12502
lthumb -3.3378 18.6306
rfemur -28.256 -3.24989 19.7516
rtibia 46.4709
rfoot 19.7462 -9.7041
rtoes 26.095
lfemur -26.8908 2.71041 -16.4119
ltibia 42.7402
lfoot 26.883 1.77534
ltoes 5.54105
174
root 0.304065 20.772 -10.0071 10.5186 2.67618 -1.52976
lowerback 8.69937 -0.547278 -1.1806
upperback 5.49533 -0.795536 2.67221
thorax 0.874236 -0.468178 3.48913
lowerneck -7.36649 0.0742171 -1.51979
upperneck 24.784 0.73317 -1.54276
head 8.95334 0.0513682 -0.193309
rclavicle 1.23246e-014 5.96354e-015
rhumerus -4.58452 -0.306362 -86.9618
rradius 29.5928
rwrist 25.9063
rhand -22.0685 -24.8004
rfingers 7.12502
rthumb 4.34259 -54.7358
lclavicle 1.23246e-014 5.96354e-015
lhumerus -0.189174 -14.559 89.461
lradius 33.5827
lwrist 22.877
lhand -29.8941 -11.1862
lfingers 7.12502
lthumb -3.21515 18.7693
rfemur -28.8692 -3.09123 19.856
rtibia 47.1528
rfoot 19.6736 -8.94701
rtoes 25.8089
lfemur -27.4433 2.69248 -16.4609
ltibia 43.378
lfoot 26.4785 1.26275
ltoes 5.55361
